<svg width="20" height="16" viewBox="0 0 20 16" fill="none" xmlns="http://www.w3.org/2000/svg">
<g clip-path="url(#clip0_620_18)">
<path opacity="0.4" d="M3.625 5.00085H2.375C2.16797 5.00085 2 5.16882 2 5.37585V6.62585C2 6.83288 2.16797 7.00085 2.375 7.00085H3.625C3.83203 7.00085 4 6.83288 4 6.62585V5.37585C4 5.16882 3.83203 5.00085 3.625 5.00085ZM3.625 8.00085H2.375C2.16797 8.00085 2 8.16882 2 8.37585V9.62585C2 9.83288 2.16797 10.0009 2.375 10.0009H3.625C3.83203 10.0009 4 9.83288 4 9.62585V8.37585C4 8.16882 3.83203 8.00085 3.625 8.00085ZM7 0.750854C7 0.336604 6.66419 0.000854492 6.25 0.000854492C5.83581 0.000854492 5.5 0.336604 5.5 0.750854V3.00085H7V0.750854ZM3.625 11.0009H2.375C2.16797 11.0009 2 11.1688 2 11.3759V12.6259C2 12.8329 2.16797 13.0009 2.375 13.0009H3.625C3.83203 13.0009 4 12.8329 4 12.6259V11.3759C4 11.1688 3.83203 11.0009 3.625 11.0009ZM3.5 0.750854C3.5 0.336604 3.16419 0.000854492 2.75 0.000854492C2.33581 0.000854492 2 0.336604 2 0.750854V3.00085H3.5V0.750854ZM17.625 11.0009H16.375C16.168 11.0009 16 11.1688 16 11.3759V12.6259C16 12.8329 16.168 13.0009 16.375 13.0009H17.625C17.832 13.0009 18 12.8329 18 12.6259V11.3759C18 11.1688 17.832 11.0009 17.625 11.0009ZM17.625 8.00085H16.375C16.168 8.00085 16 8.16882 16 8.37585V9.62585C16 9.83288 16.168 10.0009 16.375 10.0009H17.625C17.832 10.0009 18 9.83288 18 9.62585V8.37585C18 8.16882 17.832 8.00085 17.625 8.00085ZM7.625 8.00085H6.375C6.16797 8.00085 6 8.16882 6 8.37585V9.62585C6 9.83288 6.16797 10.0009 6.375 10.0009H7.625C7.83203 10.0009 8 9.83288 8 9.62585V8.37585C8 8.16882 7.83203 8.00085 7.625 8.00085ZM7.625 5.00085H6.375C6.16797 5.00085 6 5.16882 6 5.37585V6.62585C6 6.83288 6.16797 7.00085 6.375 7.00085H7.625C7.83203 7.00085 8 6.83288 8 6.62585V5.37585C8 5.16882 7.83203 5.00085 7.625 5.00085ZM7.625 11.0009H6.375C6.16797 11.0009 6 11.1688 6 11.3759V12.6259C6 12.8329 6.16797 13.0009 6.375 13.0009H7.625C7.83203 13.0009 8 12.8329 8 12.6259V11.3759C8 11.1688 7.83203 11.0009 7.625 11.0009Z" fill="#38A463"/>
<path d="M18.5 6.00128H15V1.50128C15 0.672875 14.3284 0.00128174 13.5 0.00128174H10.5C9.67156 0.00128174 9 0.672875 9 1.50128V3.00128H1.5C0.671562 3.00128 0 3.67288 0 4.50128V15.0013C0 15.5535 0.44775 16.0013 1 16.0013H19C19.5523 16.0013 20 15.5535 20 15.0013V7.50128C20 6.67288 19.3284 6.00128 18.5 6.00128ZM4 12.6263C4 12.8333 3.83203 13.0013 3.625 13.0013H2.375C2.16797 13.0013 2 12.8333 2 12.6263V11.3763C2 11.1693 2.16797 11.0013 2.375 11.0013H3.625C3.83203 11.0013 4 11.1693 4 11.3763V12.6263ZM4 9.62628C4 9.83331 3.83203 10.0013 3.625 10.0013H2.375C2.16797 10.0013 2 9.83331 2 9.62628V8.37628C2 8.16925 2.16797 8.00128 2.375 8.00128H3.625C3.83203 8.00128 4 8.16925 4 8.37628V9.62628ZM4 6.62628C4 6.83331 3.83203 7.00128 3.625 7.00128H2.375C2.16797 7.00128 2 6.83331 2 6.62628V5.37628C2 5.16925 2.16797 5.00128 2.375 5.00128H3.625C3.83203 5.00128 4 5.16925 4 5.37628V6.62628ZM8 12.6263C8 12.8333 7.83203 13.0013 7.625 13.0013H6.375C6.16797 13.0013 6 12.8333 6 12.6263V11.3763C6 11.1693 6.16797 11.0013 6.375 11.0013H7.625C7.83203 11.0013 8 11.1693 8 11.3763V12.6263ZM8 9.62628C8 9.83331 7.83203 10.0013 7.625 10.0013H6.375C6.16797 10.0013 6 9.83331 6 9.62628V8.37628C6 8.16925 6.16797 8.00128 6.375 8.00128H7.625C7.83203 8.00128 8 8.16925 8 8.37628V9.62628ZM8 6.62628C8 6.83331 7.83203 7.00128 7.625 7.00128H6.375C6.16797 7.00128 6 6.83331 6 6.62628V5.37628C6 5.16925 6.16797 5.00128 6.375 5.00128H7.625C7.83203 5.00128 8 5.16925 8 5.37628V6.62628ZM13 9.62628C13 9.83331 12.832 10.0013 12.625 10.0013H11.375C11.168 10.0013 11 9.83331 11 9.62628V8.37628C11 8.16925 11.168 8.00128 11.375 8.00128H12.625C12.832 8.00128 13 8.16925 13 8.37628V9.62628ZM13 6.62628C13 6.83331 12.832 7.00128 12.625 7.00128H11.375C11.168 7.00128 11 6.83331 11 6.62628V5.37628C11 5.16925 11.168 5.00128 11.375 5.00128H12.625C12.832 5.00128 13 5.16925 13 5.37628V6.62628ZM13 3.62628C13 3.83331 12.832 4.00128 12.625 4.00128H11.375C11.168 4.00128 11 3.83331 11 3.62628V2.37628C11 2.16925 11.168 2.00128 11.375 2.00128H12.625C12.832 2.00128 13 2.16925 13 2.37628V3.62628ZM18 12.6263C18 12.8333 17.832 13.0013 17.625 13.0013H16.375C16.168 13.0013 16 12.8333 16 12.6263V11.3763C16 11.1693 16.168 11.0013 16.375 11.0013H17.625C17.832 11.0013 18 11.1693 18 11.3763V12.6263ZM18 9.62628C18 9.83331 17.832 10.0013 17.625 10.0013H16.375C16.168 10.0013 16 9.83331 16 9.62628V8.37628C16 8.16925 16.168 8.00128 16.375 8.00128H17.625C17.832 8.00128 18 8.16925 18 8.37628V9.62628Z" fill="#38A463"/>
</g>
<defs>
<clipPath id="clip0_620_18">
<rect width="20" height="16" fill="white"/>
</clipPath>
</defs>
</svg>
