<svg width="40" height="40" viewBox="0 0 23 24" fill="white" xmlns="http://www.w3.org/2000/svg">
<g clip-path="url(#clip0_620_3)">
<path d="M11.5 6.21175C8.23688 6.21175 5.60625 8.79528 5.60625 12C5.60625 15.2047 8.23688 17.7882 11.5 17.7882C14.7631 17.7882 17.3938 15.2047 17.3938 12C17.3938 8.79528 14.7631 6.21175 11.5 6.21175ZM11.5 15.7694C9.38687 15.7694 7.66187 14.0753 7.66187 12C7.66187 9.9247 9.38687 8.23058 11.5 8.23058C13.6131 8.23058 15.3381 9.9247 15.3381 12C15.3381 14.0753 13.6131 15.7694 11.5 15.7694ZM19.0181 5.97175C19.0181 6.71999 18.4 7.32705 17.6381 7.32705C16.8763 7.32705 16.2581 6.71999 16.2581 5.97175C16.2581 5.22352 16.8763 4.61646 17.6381 4.61646C18.4 4.61646 19.0181 5.22352 19.0181 5.97175ZM22.9281 7.34117C22.8419 5.53411 22.425 3.9247 21.0737 2.61175C19.7225 1.2847 18.0838 0.875283 16.2438 0.790577C14.3463 0.677636 8.65375 0.677636 6.75625 0.790577C4.91625 0.875283 3.29188 1.2847 1.94063 2.61175C0.589375 3.93881 0.1725 5.53411 0.08625 7.34117C-0.02875 9.2047 -0.02875 14.7953 0.08625 16.6588C0.1725 18.4659 0.589375 20.0753 1.94063 21.3882C3.29188 22.7153 4.91625 23.1247 6.75625 23.2094C8.65375 23.3082 14.3463 23.3082 16.2438 23.2094C18.0838 23.1247 19.7225 22.7153 21.0594 21.3882C22.4106 20.0612 22.8275 18.4659 22.9137 16.6588C23.0144 14.7953 23.0144 9.2047 22.9137 7.34117H22.9281ZM20.47 18.6494C20.0675 19.6376 19.2913 20.4 18.285 20.7953C16.7756 21.3882 13.1819 21.247 11.5 21.247C9.81813 21.247 6.22437 21.3741 4.715 20.7953C3.70875 20.4 2.9325 19.6376 2.53 18.6494C1.92625 17.167 2.07 13.6376 2.07 11.9859C2.07 10.3341 1.94062 6.8047 2.53 5.32234C2.9325 4.33411 3.70875 3.57175 4.715 3.17646C6.22437 2.58352 9.81813 2.7247 11.5 2.7247C13.1819 2.7247 16.7756 2.59764 18.285 3.17646C19.2913 3.57175 20.0675 4.33411 20.47 5.32234C21.0737 6.8047 20.93 10.3341 20.93 11.9859C20.93 13.6376 21.0737 17.167 20.47 18.6494Z"/>
</g>
</svg>
