<svg width="40" height="40" viewBox="0 0 22 24" fill="white" xmlns="http://www.w3.org/2000/svg">
<g clip-path="url(#clip0_620_5)">
<path d="M20.4286 0.799988H1.52232C0.6875 0.799988 0 1.54999 0 2.44999V21.6C0 22.5 0.6875 23.2 1.52232 23.2H20.4286C21.2633 23.2 22 22.5 22 21.6V2.44999C22 1.54999 21.2633 0.799988 20.4286 0.799988ZM6.62946 20H3.38839V9.34999H6.62946V20ZM5.00893 7.84999C3.92857 7.84999 3.09375 6.99999 3.09375 5.94999C3.09375 4.89999 3.92857 3.99999 5.00893 3.99999C6.04018 3.99999 6.875 4.89999 6.875 5.94999C6.875 6.99999 6.04018 7.84999 5.00893 7.84999ZM18.8571 20H15.567V14.8C15.567 13.6 15.567 12 13.8973 12C12.1786 12 11.933 13.35 11.933 14.75V20H8.69196V9.34999H11.7857V10.8H11.8348C12.2768 9.94999 13.3571 9.04999 14.9286 9.04999C18.2188 9.04999 18.8571 11.3 18.8571 14.15V20Z"/>
</g>
</svg>
