<svg width="20" height="18" viewBox="0 0 20 18" fill="none" xmlns="http://www.w3.org/2000/svg">
<path opacity="0.4" d="M15 2.25H5C5.01066 2.25756 5.02056 2.27113 5.03108 2.27967C7.77406 2.30052 10 4.53034 10 7.31246V14.6249C10 15.2462 9.50257 15.7499 8.88889 15.7499H18.8889C19.5009 15.7499 20 15.2446 20 14.6249V7.31246C20 4.51758 17.7604 2.25 15 2.25ZM17.7778 9.56246C17.7778 9.87311 17.5291 10.125 17.2222 10.125H16.1111C15.8043 10.125 15.5556 9.87311 15.5556 9.56246V7.87496H13.8889C13.5834 7.87496 13.3333 7.62187 13.3333 7.31246C13.3333 7.00305 13.5834 6.74996 13.8889 6.74996H17.2222C17.5291 6.74996 17.7778 7.00182 17.7778 7.31246V9.56246Z" fill="#38A463"/>
<path d="M17.2222 6.74998H13.8889C13.5834 6.74998 13.3333 7.00307 13.3333 7.31248C13.3333 7.62189 13.5834 7.87498 13.8889 7.87498H15.5556V9.56248C15.5556 9.87312 15.8043 10.125 16.1111 10.125H17.2222C17.5291 10.125 17.7778 9.87312 17.7778 9.56248V7.31248C17.7778 7.00184 17.5291 6.74998 17.2222 6.74998ZM4.50698 2.27389C1.90781 2.52631 0 4.88811 0 7.53179V14.6249C0 15.2438 0.5 15.7499 1.11111 15.7499H8.88889C9.50257 15.7499 10 15.2462 10 14.6249V7.31248C10 4.35278 7.48875 1.98469 4.50698 2.27389ZM7.22222 7.87498H2.77778C2.47097 7.87498 2.22222 7.62312 2.22222 7.31248C2.22222 7.00184 2.47097 6.74998 2.77778 6.74998H7.22222C7.5291 6.74998 7.77778 7.00184 7.77778 7.31248C7.77778 7.62312 7.5291 7.87498 7.22222 7.87498Z" fill="#38A463"/>
</svg>
