<svg width="16" height="16" viewBox="0 0 16 16" fill="none" xmlns="http://www.w3.org/2000/svg">
<g clip-path="url(#clip0_620_21)">
<path opacity="0.4" d="M15.5453 13.9725L15.8512 12.6471L10.3514 10.4472L9.503 11.483L15.5453 13.9725ZM4.51931 6.49702L5.55528 5.64899L3.35669 0.152649L2.03125 0.458399L4.51931 6.49702Z" fill="#38A463"/>
<path d="M15.8473 12.6469L15.9748 12.0946C16.0812 11.6356 15.843 11.1644 15.4083 10.974L12.0158 9.51985C11.6163 9.34998 11.1515 9.46482 10.8771 9.80073L10.3476 10.4471L15.8473 12.6469ZM2.35106e-09 1.70354C-3.12477e-05 9.58632 6.41316 15.9999 14.297 15.9999C14.755 15.9999 15.1466 15.6884 15.2482 15.2431L15.5415 13.9723L9.49916 11.4828C7.33597 10.4208 5.57719 8.66151 4.51469 6.49751L4.51547 6.49688L2.02741 0.458258L0.756813 0.751351C0.311469 0.853445 -3.12477e-05 1.24507 2.35106e-09 1.70354ZM6.19634 5.12098C6.53325 4.84951 6.64947 4.38023 6.47666 3.98085L5.02344 0.590726C4.83597 0.156101 4.36234 -0.0806175 3.90631 0.0247888L3.35284 0.152508L5.55144 5.64885L6.19634 5.12098Z" fill="#38A463"/>
</g>
<defs>
<clipPath id="clip0_620_21">
<rect width="16" height="16" fill="white"/>
</clipPath>
</defs>
</svg>
